<?xml version="1.0" standalone="no"?>
<!DOCTYPE svg PUBLIC "-//W3C//DTD SVG 20010904//EN"
 "http://www.w3.org/TR/2001/REC-SVG-20010904/DTD/svg10.dtd">
<svg version="1.0" xmlns="http://www.w3.org/2000/svg"
 width="650.000000pt" height="650.000000pt" viewBox="0 0 650.000000 650.000000"
 preserveAspectRatio="xMidYMid meet">
<metadata>
Created by potrace 1.14, written by Peter Selinger 2001-2017
</metadata>
<g transform="translate(0.000000,650.000000) scale(0.100000,-0.100000)"
fill="#000000" stroke="none">
<path d="M4746 5753 c-22 -7 -53 -24 -70 -37 -17 -13 -332 -326 -701 -695
l-670 -672 -45 7 c-70 10 -150 5 -209 -12 l-54 -15 -361 359 c-254 254 -372
365 -400 376 -137 56 -290 -36 -303 -182 -10 -111 -13 -107 400 -520 l374
-374 -7 -37 c-14 -79 4 -191 46 -279 164 -340 635 -368 838 -49 55 87 71 147
71 274 l0 112 684 683 c524 523 689 694 704 728 24 53 26 139 4 191 -48 117
-187 182 -301 142z m-1480 -1557 c70 -15 165 -94 203 -169 112 -224 -56 -483
-305 -472 -121 5 -230 78 -280 187 -86 188 16 402 215 454 42 11 115 11 167 0z"/>
<path d="M217 3986 c-119 -44 -190 -157 -182 -289 11 -177 69 -462 139 -677
81 -252 204 -514 332 -713 24 -37 44 -70 44 -72 0 -3 6 -13 14 -22 8 -10 49
-65 92 -123 276 -376 660 -704 1084 -927 185 -97 447 -200 640 -251 94 -25
304 -70 362 -77 84 -10 133 -17 158 -22 45 -9 523 -11 600 -2 41 4 100 11 130
14 196 20 586 118 735 184 11 5 61 26 110 46 141 58 368 179 500 267 418 280
746 620 995 1035 245 408 408 905 437 1330 6 90 5 95 -26 158 -84 169 -288
208 -429 81 -57 -52 -78 -105 -97 -242 -46 -335 -130 -609 -275 -894 -51 -100
-189 -322 -235 -379 -8 -9 -36 -43 -62 -76 -348 -435 -855 -761 -1398 -900
-131 -34 -144 -36 -270 -56 -38 -6 -81 -13 -95 -16 -47 -9 -475 -12 -550 -3
-290 34 -518 91 -750 187 -103 42 -299 140 -321 159 -8 8 -19 14 -24 14 -12 0
-170 107 -279 190 -114 85 -333 298 -422 410 -71 88 -194 258 -202 280 -3 8
-16 30 -29 49 -47 69 -153 291 -203 426 -60 159 -113 359 -134 500 -9 58 -16
105 -21 150 -13 117 -71 207 -160 250 -51 24 -157 30 -208 11z"/>
</g>
</svg>
