<svg xmlns="http://www.w3.org/2000/svg" width="101.975" height="116.543" viewBox="0 0 101.975 116.543">
  <path id="Icon_awesome-building" data-name="Icon awesome-building" d="M99.244,109.259H94.691L97.455,0c-.8.36-4.343,0-7.36,0H2.731V5.463l4.552,103.8H2.731A2.732,2.732,0,0,0,0,111.99v4.552H101.975V111.99A2.732,2.732,0,0,0,99.244,109.259ZM29.136,17.3a2.732,2.732,0,0,1,2.731-2.731h9.1A2.732,2.732,0,0,1,43.7,17.3v9.1a2.732,2.732,0,0,1-2.731,2.731h-9.1A2.732,2.732,0,0,1,29.136,26.4Zm0,21.852a2.732,2.732,0,0,1,2.731-2.731h9.1A2.732,2.732,0,0,1,43.7,39.151v9.1a2.732,2.732,0,0,1-2.731,2.731h-9.1a2.732,2.732,0,0,1-2.731-2.731ZM40.972,72.839h-9.1a2.732,2.732,0,0,1-2.731-2.731V61a2.732,2.732,0,0,1,2.731-2.731h9.1A2.732,2.732,0,0,1,43.7,61v9.1A2.732,2.732,0,0,1,40.972,72.839Zm17.3,36.42H43.7V90.139a2.732,2.732,0,0,1,2.731-2.731h9.1a2.732,2.732,0,0,1,2.731,2.731ZM72.839,70.108a2.732,2.732,0,0,1-2.731,2.731H61a2.732,2.732,0,0,1-2.731-2.731V61A2.732,2.732,0,0,1,61,58.271h9.1A2.732,2.732,0,0,1,72.839,61Zm0-21.852a2.732,2.732,0,0,1-2.731,2.731H61a2.732,2.732,0,0,1-2.731-2.731v-9.1A2.732,2.732,0,0,1,61,36.42h9.1a2.732,2.732,0,0,1,2.731,2.731Zm0-21.852a2.732,2.732,0,0,1-2.731,2.731H61A2.732,2.732,0,0,1,58.271,26.4V17.3A2.732,2.732,0,0,1,61,14.568h9.1A2.732,2.732,0,0,1,72.839,17.3Z" fill="#2a3794"/>
</svg>
