<svg xmlns="http://www.w3.org/2000/svg" width="87.747" height="87.619" viewBox="0 0 87.747 87.619">
  <path id="Icon_metro-bell" data-name="Icon metro-bell" d="M90.318,70.38c0-24.643-21.9-19.167-21.9-38.333a17.534,17.534,0,0,0-.432-4.1c-1.44-9.67-7.885-17.431-16.238-19.8A4.872,4.872,0,0,0,51.856,7.1,5.485,5.485,0,0,0,40.9,7.1a4.879,4.879,0,0,0,.113,1.045C31.65,10.8,24.681,20.24,24.481,31.547c0,.164-.006.331-.006.5,0,19.167-21.9,13.691-21.9,38.333,0,6.522,14.6,11.979,34.138,13.355a10.953,10.953,0,0,0,19.343,0C75.593,82.359,90.19,76.9,90.19,70.38c0-.02,0-.039,0-.058l.131.058ZM73.269,75.009a93.569,93.569,0,0,1-15.981,2.622,10.95,10.95,0,0,0-21.815,0,93.573,93.573,0,0,1-15.981-2.622c-6.386-1.7-9.439-3.61-10.556-4.629,1.117-1.019,4.17-2.925,10.556-4.629A108.471,108.471,0,0,1,46.38,62.679a108.471,108.471,0,0,1,26.889,3.072c6.386,1.7,9.439,3.61,10.556,4.629-1.117,1.019-4.17,2.925-10.556,4.629Z" transform="translate(-2.571 -1.928)" fill="#2a3794"/>
</svg>
