<svg id="Icon_ionic-ios-people" data-name="Icon ionic-ios-people" xmlns="http://www.w3.org/2000/svg" width="107.793" height="70.053" viewBox="0 0 107.793 70.053">
  <path id="Path_356" data-name="Path 356" d="M64.033,61.645c-2.689-.96-7.082-1.008-9.027-1.753-1.344-.528-3.481-1.1-4.177-1.945s-.7-6.842-.7-6.842a11.053,11.053,0,0,0,2.377-3.361,37.354,37.354,0,0,0,1.152-6.6s1.584.672,2.209-2.5c.528-2.737,1.536-4.177,1.272-6.194-.288-2.017-1.392-1.536-1.392-1.536s1.392-2.041,1.392-8.979c0-7.154-5.4-14.188-15.509-14.188C31.551,7.748,26.1,14.807,26.1,21.937c0,6.938,1.368,8.979,1.368,8.979s-1.128-.48-1.392,1.536c-.288,2.017.72,3.457,1.272,6.194.624,3.193,2.209,2.5,2.209,2.5a37.715,37.715,0,0,0,1.152,6.6,11.053,11.053,0,0,0,2.377,3.361s0,6-.7,6.842-2.833,1.416-4.177,1.921c-1.921.744-6.314.84-9.027,1.8a16.943,16.943,0,0,0-11,16.133H75A16.91,16.91,0,0,0,64.033,61.645Z" transform="translate(12.215 -7.748)" fill="#2a3794"/>
  <path id="Path_357" data-name="Path 357" d="M28.263,41.6s5.738-.192,8.018-2.233c-3.721-5.642-1.7-12.22-2.473-18.366-.768-6.122-4.249-9.8-11.211-9.8h-.1c-6.722,0-10.347,3.649-11.115,9.8-.768,6.122,1.368,13.444-2.449,18.366,2.281,2.065,8.042,1.993,8.042,1.993h0s.24,3.457-.24,4.033a6.062,6.062,0,0,1-2.881,1.32,55.7,55.7,0,0,0-6.218,1.729c-1.873.648-5.426,4.129-5.426,8.931H21.493c.528-1.921,4.153-5.354,7.682-7.154,2.161-1.1,4.3-1.032,5.93-1.248,0,0,.912-1.44-2.089-1.993,0,0-4.129-1.032-4.609-1.609C27.951,44.842,28.263,41.6,28.263,41.6Z" transform="translate(-2.215 0.604)" fill="#2a3794"/>
  <path id="Path_358" data-name="Path 358" d="M31.826,41.6s-5.738-.192-8.018-2.233c3.721-5.642,1.7-12.22,2.473-18.366.768-6.122,4.249-9.8,11.211-9.8h.1c6.722,0,10.347,3.649,11.115,9.8.768,6.122-1.368,13.444,2.449,18.366-2.281,2.065-8.042,1.993-8.042,1.993h0s-.24,3.457.24,4.033a6.062,6.062,0,0,0,2.881,1.32,55.7,55.7,0,0,1,6.218,1.729c1.873.648,5.426,4.129,5.426,8.931H38.6c-.528-1.921-4.153-5.354-7.682-7.154-2.161-1.1-4.3-1.032-5.93-1.248,0,0-.912-1.44,2.089-1.993,0,0,4.129-1.032,4.609-1.609C32.138,44.842,31.826,41.6,31.826,41.6Z" transform="translate(49.919 0.604)" fill="#2a3794"/>
</svg>
