<svg xmlns="http://www.w3.org/2000/svg" width="61.297" height="70.054" viewBox="0 0 61.297 70.054">
  <path id="Icon_awesome-calendar-week" data-name="Icon awesome-calendar-week" d="M0,63.486a6.569,6.569,0,0,0,6.568,6.568H54.729A6.569,6.569,0,0,0,61.3,63.486V26.27H0Zm8.757-26.27a2.2,2.2,0,0,1,2.189-2.189H50.351a2.2,2.2,0,0,1,2.189,2.189v8.757a2.2,2.2,0,0,1-2.189,2.189H10.946a2.2,2.2,0,0,1-2.189-2.189ZM54.729,8.757H48.162V2.189A2.2,2.2,0,0,0,45.973,0H41.594a2.2,2.2,0,0,0-2.189,2.189V8.757H21.892V2.189A2.2,2.2,0,0,0,19.7,0H15.324a2.2,2.2,0,0,0-2.189,2.189V8.757H6.568A6.569,6.569,0,0,0,0,15.324v6.568H61.3V15.324A6.569,6.569,0,0,0,54.729,8.757Z" fill="#2a3794"/>
</svg>
